<?xml version="1.0" encoding="iso-8859-1"?>
<!-- Generator: Adobe Illustrator 21.1.0, SVG Export Plug-In . SVG Version: 6.00 Build 0)  -->
<svg version="1.1" xmlns="http://www.w3.org/2000/svg" xmlns:xlink="http://www.w3.org/1999/xlink" x="0px" y="0px"
	 viewBox="0 0 423 1024" style="enable-background:new 0 0 423 1024;" xml:space="preserve">
<g id="Layer_1">
</g>
<g id="Layer_2">
	<g>
		
			<radialGradient id="SVGID_1_" cx="177.2638" cy="162.8406" r="129.6778" fx="161.9495" fy="267.9884" gradientUnits="userSpaceOnUse">
			<stop  offset="0" style="stop-color:#FFFFFF"/>
			<stop  offset="0.398" style="stop-color:#FDFDFD"/>
			<stop  offset="0.6205" style="stop-color:#F5F5F5"/>
			<stop  offset="0.7997" style="stop-color:#E7E7E7"/>
			<stop  offset="0.955" style="stop-color:#D3D3D3"/>
			<stop  offset="1" style="stop-color:#CCCCCC"/>
		</radialGradient>
		<path style="fill:url(#SVGID_1_);" d="M301.01,66.91c0,0-15.507-8.27-24.294-7.753S175.923,41.582,106.66,137.723
			c0,0-15.507,38.767-14.473,79.601c0,0-7.236,64.611-12.922,68.746c0,0,39.283-16.54,41.351-19.642c0,0,11.888,31.53,9.304,38.767
			c0,0,78.567-17.057,82.702-22.743l43.935,11.888l23.777-31.53l8.787,7.236l11.888-11.888l22.743,14.473v-16.023l17.057,8.27
			l-3.101-16.023c0,0,24.811,20.159,28.429,20.159c0,0-19.383-23.518-19.9-30.755s-39.283-29.463-43.935-59.959
			s10.855-53.756,10.855-53.756S331.765,86.293,301.01,66.91z"/>
		<path style="fill:#E5B04A;" d="M209.262,125.06c0,0,55.824-17.574,58.408-28.946l11.372-27.912c0,0,53.756-8.787,61.51,22.226
			s-4.135,47.037-4.135,47.037s-5.169-3.618-6.72-7.753c0,0,0.67-17.487-12.329-18.047l-53.316,3.058l-31.53,12.405
			C232.522,127.127,215.465,130.228,209.262,125.06z"/>
		<path style="fill:#BC8806;" d="M232.522,127.127l31.53-12.405l53.239-3.101c0,0,8.687-2.584,10.546,7.753
			c0,0-35.873,3.618-45.694,5.169s-36.699,6.203-36.699,6.203L232.522,127.127z"/>
		<path style="fill:#EDD756;" d="M211.847,74.922c0,0-21.192,12.405-21.709,18.091c-0.517,5.686,0,3.101,0,3.101
			s30.496,27.395,49.621-5.169v-9.821l16.023-6.203H211.847z"/>
		<ellipse cx="218.566" cy="90.945" rx="13.956" ry="11.372"/>
		<circle style="fill:#F4EAA6;" cx="218.566" cy="90.945" r="10.855"/>
		<circle cx="218.566" cy="90.945" r="4.135"/>
		<path style="fill:#D39402;" d="M300.234,72.854c0,0-13.956,5.686-15.507,13.956C284.728,86.81,294.032,87.844,300.234,72.854z"/>
		<path style="fill:#CEC3AB;" d="M203.06,72.854h11.372c0,0,10.079,8.787,29.333,6.72s12.018-8.787,12.018-8.787l-33.081,2.068
			l-6.203-4.652L203.06,72.854z"/>
	</g>
	<path style="fill:#4C2C19;" d="M84.83,268.04c0,0,204.857-92.352,250.865-41.726c0,0,57.418,44.882,49.97,109.118
		c0,0-45.262,32.804-169.889,37.152c0,0-100.683,49.507-163.393-37.152L84.83,268.04z"/>
	<g>
		<path style="fill:#204E84;" d="M52.569,335.545h333.089v82.111H262.493v403.299c0,23.673-19.191,39.14-42.863,39.14h-5.373
			c-21.275,0-38.522-19.109-38.522-40.383V417.656H52.569V335.545z"/>
	</g>
	<g>
		<path style="fill:#AF000D;" d="M385.253,460.21v346.354c0,99.897-70.729,168.436-166.249,168.436S52.756,906.461,52.756,806.564
			V460.21h81.669v350.728c0,51.772,32.81,86.772,84.58,86.772s84.585-35,84.585-86.772V460.21H385.253z"/>
	</g>
</g>
</svg>
